HIERARCHY
ROOT Hips
{
	OFFSET 0.000000 87.230942 0.000000
	CHANNELS 6 Xposition Yposition Zposition Xrotation Yrotation Zrotation
	JOINT Pelvis
	{
		OFFSET 0.000000 0.000000 0.000000
		CHANNELS 3 Xrotation Yrotation Zrotation
		JOINT LeftUpLeg
		{
			OFFSET 12.017000 -9.376404 -2.439400
			CHANNELS 3 Xrotation Yrotation Zrotation
			JOINT LeftLeg
			{
				OFFSET -0.007312 -32.846973 2.110600
				CHANNELS 3 Xrotation Yrotation Zrotation
				JOINT LeftFoot
				{
					OFFSET 0.007312 -32.065170 -0.570400
					CHANNELS 3 Xrotation Yrotation Zrotation
					JOINT LeftToeBase
					{
						OFFSET 0.728300 -11.045900 13.180700
						CHANNELS 3 Xrotation Yrotation Zrotation
						End Site
						{
							OFFSET 0.000000 17.212589 0.000000
						}
					}
				}
				JOINT LeftPantLeg
				{
					OFFSET 0.002788 -16.709013 -3.143600
					CHANNELS 3 Xrotation Yrotation Zrotation
					End Site
					{
						OFFSET -0.605125 24.528742 0.000000
					}
				}
			}
			JOINT Left_Butt
			{
				OFFSET -6.630234 1.326584 -3.183700
				CHANNELS 3 Xrotation Yrotation Zrotation
				End Site
				{
					OFFSET -0.498041 20.188049 0.000000
				}
			}
		}
		JOINT RightUpLeg
		{
			OFFSET -11.717000 -9.376404 -2.439400
			CHANNELS 3 Xrotation Yrotation Zrotation
			JOINT RightLeg
			{
				OFFSET -0.003241 -32.846912 2.110600
				CHANNELS 3 Xrotation Yrotation Zrotation
				JOINT RightFoot
				{
					OFFSET 0.003241 -32.065136 -0.570500
					CHANNELS 3 Xrotation Yrotation Zrotation
					JOINT RightToeBase
					{
						OFFSET -0.728300 -11.045901 13.180700
						CHANNELS 3 Xrotation Yrotation Zrotation
						End Site
						{
							OFFSET 0.000000 17.212593 0.000000
						}
					}
				}
				JOINT RightPantLeg
				{
					OFFSET 0.008142 -16.708982 -3.143700
					CHANNELS 3 Xrotation Yrotation Zrotation
					End Site
					{
						OFFSET 0.605088 24.528715 0.000000
					}
				}
			}
			JOINT Right_Butt
			{
				OFFSET 6.630732 1.326584 -3.183700
				CHANNELS 3 Xrotation Yrotation Zrotation
				End Site
				{
					OFFSET 0.498015 20.188240 0.000000
				}
			}
		}
	}
	JOINT Spine
	{
		OFFSET -0.062400 7.848404 3.918300
		CHANNELS 3 Xrotation Yrotation Zrotation
		JOINT Spine1
		{
			OFFSET -0.072800 11.422302 0.713400
			CHANNELS 3 Xrotation Yrotation Zrotation
			JOINT Spine2
			{
				OFFSET -0.083200 13.054001 -1.931600
				CHANNELS 3 Xrotation Yrotation Zrotation
				JOINT Neck
				{
					OFFSET -0.092200 14.121796 -5.138800
					CHANNELS 3 Xrotation Yrotation Zrotation
					JOINT Head
					{
						OFFSET 0.000200 10.447403 -0.842000
						CHANNELS 3 Xrotation Yrotation Zrotation
						JOINT Visor
						{
							OFFSET 0.457100 25.671204 16.550400
							CHANNELS 3 Xrotation Yrotation Zrotation
							End Site
							{
								OFFSET 0.000000 26.061493 0.000000
							}
						}
						JOINT HairMidA
						{
							OFFSET 0.459400 31.585403 8.437400
							CHANNELS 3 Xrotation Yrotation Zrotation
							End Site
							{
								OFFSET 0.000000 26.061493 0.000000
							}
						}
						JOINT HairMidB
						{
							OFFSET 0.464000 33.309204 -8.389700
							CHANNELS 3 Xrotation Yrotation Zrotation
							End Site
							{
								OFFSET 0.000000 26.061493 0.000000
							}
						}
						JOINT HairMidC
						{
							OFFSET 0.466600 27.991196 -17.375099
							CHANNELS 3 Xrotation Yrotation Zrotation
							End Site
							{
								OFFSET 0.000000 26.061493 0.000000
							}
						}
						JOINT HairMidD
						{
							OFFSET 0.467700 17.888092 -21.169500
							CHANNELS 3 Xrotation Yrotation Zrotation
							End Site
							{
								OFFSET 0.000000 26.061493 0.000000
							}
						}
						JOINT HairMidE
						{
							OFFSET 5.325700 3.514603 -14.369699
							CHANNELS 3 Xrotation Yrotation Zrotation
							End Site
							{
								OFFSET 0.000000 26.061493 0.000000
							}
						}
						JOINT HairMidF
						{
							OFFSET -4.394100 3.514603 -14.372400
							CHANNELS 3 Xrotation Yrotation Zrotation
							End Site
							{
								OFFSET 0.000000 26.061493 0.000000
							}
						}
						JOINT HairLeftA
						{
							OFFSET 15.319900 25.746506 2.623300
							CHANNELS 3 Xrotation Yrotation Zrotation
							End Site
							{
								OFFSET 0.000000 26.061493 0.000000
							}
						}
						JOINT HairLeftB
						{
							OFFSET 12.619500 29.289398 -8.731499
							CHANNELS 3 Xrotation Yrotation Zrotation
							End Site
							{
								OFFSET 0.000000 26.061493 0.000000
							}
						}
						JOINT HairLeftC
						{
							OFFSET 15.714800 15.959900 2.909800
							CHANNELS 3 Xrotation Yrotation Zrotation
							End Site
							{
								OFFSET 0.000000 26.061493 0.000000
							}
						}
						JOINT HairLeftD
						{
							OFFSET 16.101700 18.437408 -7.553200
							CHANNELS 3 Xrotation Yrotation Zrotation
							End Site
							{
								OFFSET 0.000000 26.061493 0.000000
							}
						}
						JOINT HairLeftE
						{
							OFFSET 9.731900 17.915009 -18.316799
							CHANNELS 3 Xrotation Yrotation Zrotation
							End Site
							{
								OFFSET 0.000000 26.061493 0.000000
							}
						}
						JOINT HairLeftF
						{
							OFFSET 11.204300 4.953598 -9.668100
							CHANNELS 3 Xrotation Yrotation Zrotation
							End Site
							{
								OFFSET 0.000000 26.061493 0.000000
							}
						}
						JOINT HairRightA
						{
							OFFSET -14.397900 25.746307 2.615100
							CHANNELS 3 Xrotation Yrotation Zrotation
							End Site
							{
								OFFSET 0.000000 26.061493 0.000000
							}
						}
						JOINT HairRightB
						{
							OFFSET -11.691200 29.289200 -8.738199
							CHANNELS 3 Xrotation Yrotation Zrotation
							End Site
							{
								OFFSET 0.000000 26.061493 0.000000
							}
						}
						JOINT HairRightC
						{
							OFFSET -14.792900 15.959702 2.901400
							CHANNELS 3 Xrotation Yrotation Zrotation
							End Site
							{
								OFFSET 0.000000 26.061493 0.000000
							}
						}
						JOINT HairRightD
						{
							OFFSET -15.174000 18.437195 -7.561900
							CHANNELS 3 Xrotation Yrotation Zrotation
							End Site
							{
								OFFSET 0.000000 26.061493 0.000000
							}
						}
						JOINT HairRightE
						{
							OFFSET -8.798200 17.914902 -18.322001
							CHANNELS 3 Xrotation Yrotation Zrotation
							End Site
							{
								OFFSET 0.000000 26.061493 0.000000
							}
						}
						JOINT HairRightF
						{
							OFFSET -10.275200 4.953506 -9.674099
							CHANNELS 3 Xrotation Yrotation Zrotation
							End Site
							{
								OFFSET 0.000000 26.061493 0.000000
							}
						}
					}
				}
				JOINT LeftShoulder
				{
					OFFSET 5.133500 7.341202 -1.867600
					CHANNELS 3 Xrotation Yrotation Zrotation
					JOINT LeftArm
					{
						OFFSET 8.072663 0.936867 -2.176600
						CHANNELS 3 Xrotation Yrotation Zrotation
						JOINT LeftForeArm
						{
							OFFSET 31.271999 0.000000 0.000000
							CHANNELS 3 Xrotation Yrotation Zrotation
							JOINT LeftHand
							{
								OFFSET 31.771030 0.000000 0.000000
								CHANNELS 3 Xrotation Yrotation Zrotation
								JOINT LeftHandThumb1
								{
									OFFSET 2.886520 -2.557846 4.416640
									CHANNELS 3 Xrotation Yrotation Zrotation
									JOINT LeftHandThumb2
									{
										OFFSET 2.371025 -1.368912 1.368911
										CHANNELS 3 Xrotation Yrotation Zrotation
										JOINT LeftHandThumb3
										{
											OFFSET 2.243378 -1.295212 1.295213
											CHANNELS 3 Xrotation Yrotation Zrotation
											End Site
											{
												OFFSET -0.332611 2.876945 0.020015
											}
										}
									}
								}
								JOINT LeftHandIndex1
								{
									OFFSET 8.568985 -0.641945 3.119977
									CHANNELS 3 Xrotation Yrotation Zrotation
									JOINT LeftHandIndex2
									{
										OFFSET 3.348503 0.000000 0.000000
										CHANNELS 3 Xrotation Yrotation Zrotation
										JOINT LeftHandIndex3
										{
											OFFSET 3.314552 0.000000 0.000000
											CHANNELS 3 Xrotation Yrotation Zrotation
											End Site
											{
												OFFSET -1.032898 3.075485 0.678796
											}
										}
									}
								}
								JOINT LeftHandMiddle1
								{
									OFFSET 8.124603 0.000000 0.000000
									CHANNELS 3 Xrotation Yrotation Zrotation
									JOINT LeftHandMiddle2
									{
										OFFSET 4.166275 0.000000 0.000000
										CHANNELS 3 Xrotation Yrotation Zrotation
										JOINT LeftHandMiddle3
										{
											OFFSET 3.018135 0.000000 0.000000
											CHANNELS 3 Xrotation Yrotation Zrotation
											End Site
											{
												OFFSET -1.032700 2.767982 0.617226
											}
										}
									}
								}
								JOINT LeftHandRing1
								{
									OFFSET 8.571686 -0.031357 -2.884048
									CHANNELS 3 Xrotation Yrotation Zrotation
									JOINT LeftHandRing2
									{
										OFFSET 3.671181 0.000000 0.000000
										CHANNELS 3 Xrotation Yrotation Zrotation
										JOINT LeftHandRing3
										{
											OFFSET 2.728851 0.000000 0.000000
											CHANNELS 3 Xrotation Yrotation Zrotation
											End Site
											{
												OFFSET -0.815796 2.539223 0.577389
											}
										}
									}
								}
								JOINT LeftHandPinky1
								{
									OFFSET 7.854515 -0.675232 -5.213020
									CHANNELS 3 Xrotation Yrotation Zrotation
									JOINT LeftHandPinky2
									{
										OFFSET 3.068596 0.000000 0.000000
										CHANNELS 3 Xrotation Yrotation Zrotation
										JOINT LeftHandPinky3
										{
											OFFSET 2.396042 0.000000 0.000000
											CHANNELS 3 Xrotation Yrotation Zrotation
											End Site
											{
												OFFSET -0.524597 2.267998 0.567429
											}
										}
									}
								}
							}
							JOINT LeftSleeve
							{
								OFFSET 19.684509 -0.200119 0.476146
								CHANNELS 3 Xrotation Yrotation Zrotation
								End Site
								{
									OFFSET -0.031017 25.731133 -0.002868
								}
							}
						}
					}
				}
				JOINT RightShoulder
				{
					OFFSET -4.395900 7.341202 -1.870200
					CHANNELS 3 Xrotation Yrotation Zrotation
					JOINT RightArm
					{
						OFFSET -8.071453 0.936867 -2.181100
						CHANNELS 3 Xrotation Yrotation Zrotation
						JOINT RightForeArm
						{
							OFFSET -31.272011 0.000000 0.000000
							CHANNELS 3 Xrotation Yrotation Zrotation
							JOINT RightHand
							{
								OFFSET -31.771019 0.000000 0.000000
								CHANNELS 3 Xrotation Yrotation Zrotation
								JOINT RightHandThumb1
								{
									OFFSET -2.886520 -2.557808 4.416626
									CHANNELS 3 Xrotation Yrotation Zrotation
									JOINT RightHandThumb2
									{
										OFFSET -2.371056 -1.368927 1.368928
										CHANNELS 3 Xrotation Yrotation Zrotation
										JOINT RightHandThumb3
										{
											OFFSET -2.243362 -1.295204 1.295206
											CHANNELS 3 Xrotation Yrotation Zrotation
											End Site
											{
												OFFSET 0.332642 2.876938 0.020047
											}
										}
									}
								}
								JOINT RightHandIndex1
								{
									OFFSET -8.568993 -0.641953 3.120017
									CHANNELS 3 Xrotation Yrotation Zrotation
									JOINT RightHandIndex2
									{
										OFFSET -3.348518 0.000000 0.000000
										CHANNELS 3 Xrotation Yrotation Zrotation
										JOINT RightHandIndex3
										{
											OFFSET -3.314552 0.000000 0.000000
											CHANNELS 3 Xrotation Yrotation Zrotation
											End Site
											{
												OFFSET 1.032898 3.075478 0.678804
											}
										}
									}
								}
								JOINT RightHandMiddle1
								{
									OFFSET -8.124588 0.000000 0.000000
									CHANNELS 3 Xrotation Yrotation Zrotation
									JOINT RightHandMiddle2
									{
										OFFSET -4.166275 0.000000 0.000000
										CHANNELS 3 Xrotation Yrotation Zrotation
										JOINT RightHandMiddle3
										{
											OFFSET -3.018097 0.000000 0.000000
											CHANNELS 3 Xrotation Yrotation Zrotation
											End Site
											{
												OFFSET 1.032700 2.767937 0.617197
											}
										}
									}
								}
								JOINT RightHandRing1
								{
									OFFSET -8.571747 -0.031349 -2.884061
									CHANNELS 3 Xrotation Yrotation Zrotation
									JOINT RightHandRing2
									{
										OFFSET -3.671204 0.000000 0.000000
										CHANNELS 3 Xrotation Yrotation Zrotation
										JOINT RightHandRing3
										{
											OFFSET -2.728874 0.000000 0.000000
											CHANNELS 3 Xrotation Yrotation Zrotation
											End Site
											{
												OFFSET 0.815804 2.539261 0.577413
											}
										}
									}
								}
								JOINT RightHandPinky1
								{
									OFFSET -7.854561 -0.675247 -5.212970
									CHANNELS 3 Xrotation Yrotation Zrotation
									JOINT RightHandPinky2
									{
										OFFSET -3.068550 0.000000 0.000000
										CHANNELS 3 Xrotation Yrotation Zrotation
										JOINT RightHandPinky3
										{
											OFFSET -2.395981 0.000000 0.000000
											CHANNELS 3 Xrotation Yrotation Zrotation
											End Site
											{
												OFFSET 0.524605 2.267952 0.567413
											}
										}
									}
								}
							}
							JOINT RightSleeve
							{
								OFFSET -19.684753 -0.200165 0.476065
								CHANNELS 3 Xrotation Yrotation Zrotation
								End Site
								{
									OFFSET 0.031342 25.731255 -0.002917
								}
							}
						}
					}
				}
				JOINT Hood
				{
					OFFSET 0.369700 14.447800 -5.317800
					CHANNELS 3 Xrotation Yrotation Zrotation
					JOINT Hood1
					{
						OFFSET 0.001700 -5.553802 -5.895100
						CHANNELS 3 Xrotation Yrotation Zrotation
						JOINT Hood2
						{
							OFFSET -0.000200 -8.380501 0.763600
							CHANNELS 3 Xrotation Yrotation Zrotation
							End Site
							{
								OFFSET 0.000000 8.415215 0.000000
							}
						}
					}
				}
				JOINT Left_Breast
				{
					OFFSET 5.682500 3.120102 3.188800
					CHANNELS 3 Xrotation Yrotation Zrotation
					End Site
					{
						OFFSET 0.000000 10.528564 0.000000
					}
				}
				JOINT Right_Breast
				{
					OFFSET -4.947600 3.120102 3.185900
					CHANNELS 3 Xrotation Yrotation Zrotation
					End Site
					{
						OFFSET 0.000000 10.528564 0.000000
					}
				}
				JOINT Whistle
				{
					OFFSET 0.368200 11.471298 0.095400
					CHANNELS 3 Xrotation Yrotation Zrotation
					JOINT Whistle1
					{
						OFFSET -0.002000 -6.349899 7.479800
						CHANNELS 3 Xrotation Yrotation Zrotation
						JOINT Whistle2
						{
							OFFSET -0.001300 -8.217598 4.717600
							CHANNELS 3 Xrotation Yrotation Zrotation
							End Site
							{
								OFFSET 0.000000 9.475479 0.000000
							}
						}
					}
				}
			}
		}
		JOINT Belly
		{
			OFFSET 0.212400 1.593002 3.163700
			CHANNELS 3 Xrotation Yrotation Zrotation
			End Site
			{
				OFFSET 0.000000 7.496635 0.000000
			}
		}
	}
	JOINT FitGrandmaFacialAnim_Joint
	{
		OFFSET 1.150000 -86.211197 -1.220100
		CHANNELS 3 Xrotation Yrotation Zrotation
		End Site
		{
			OFFSET 0.000000 31.666618 0.000000
		}
	}
}
MOTION
Frames: 4
Frame Time: 0.016667
-10.621652 66.953781 -1.623187 -2.902631 4.782075 0.316758 -0.000000 0.000000 0.000000 -60.554155 -8.440972 6.454582 61.969145 -20.993015 -9.412860 -1.571662 -4.231092 -1.102983 -0.000000 0.000002 -0.000000 0.000000 -0.000001 -0.000000 -0.000003 -0.000000 0.000001 -6.833305 -5.280607 -1.902519 83.111395 -11.786256 -7.095479 -43.852280 -2.399666 17.819328 0.000000 0.000001 -0.000001 0.000001 0.000002 0.000001 -0.000001 0.000000 -0.000000 8.955282 0.141574 -1.676559 3.966862 0.230936 -3.978306 3.989347 0.231038 -3.977842 5.038292 -8.338513 11.033144 -0.460167 -3.911050 -10.648856 0.000001 -0.000000 0.000001 0.000001 -0.000000 0.000001 0.000001 -0.000000 0.000001 0.000001 -0.000000 0.000001 0.000001 -0.000000 0.000001 0.000001 -0.000000 0.000001 0.000001 -0.000000 0.000001 0.000001 -0.000000 0.000001 0.000001 -0.000000 0.000001 0.000001 -0.000000 0.000001 0.000001 -0.000000 0.000001 0.000001 -0.000000 0.000001 0.000001 -0.000000 0.000001 0.000001 -0.000000 0.000001 0.000001 -0.000000 0.000001 0.000001 -0.000000 0.000001 0.000001 -0.000000 0.000001 0.000001 -0.000000 0.000001 0.000001 -0.000000 0.000001 -8.173988 -31.527982 -8.252503 -31.588563 -14.766826 -24.997738 -124.594494 -59.639675 -127.258637 -8.365623 -5.660518 17.684041 15.614828 18.236677 11.488222 11.421615 30.331344 -11.339175 0.000001 0.000001 -0.000000 19.961282 12.194205 -48.814402 -0.280108 1.062268 -128.835208 0.000001 0.000002 -0.000001 7.703396 10.532963 -62.910899 0.990440 -0.061690 -121.377352 -0.000002 0.000001 -0.000001 0.948613 15.112220 -68.414310 0.879543 -0.210852 -117.521191 0.000002 -0.000000 -0.000002 -16.314219 19.696862 -71.347685 0.695814 -0.323405 -142.818436 -0.000001 -0.000000 -0.000002 -0.000000 -0.000002 0.000003 -8.947959 32.923250 10.353825 -34.168417 8.238667 31.408871 50.102819 118.312346 -44.867489 -7.430155 8.835776 -25.387560 17.261071 -16.812982 -12.690461 10.409549 -24.931152 14.714512 -0.000001 0.000002 -0.000002 19.952617 -0.387270 46.095926 -0.056984 -1.141834 137.151537 -0.000002 0.000000 0.000003 6.186493 -2.518727 61.008008 0.941171 0.201334 126.871406 -0.000002 -0.000004 -0.000003 0.195749 -7.578823 62.006219 0.865296 0.303839 119.921456 0.000000 0.000003 0.000000 -17.990696 -11.912600 65.482649 0.676342 0.402147 146.296136 0.000001 -0.000004 -0.000001 0.000001 0.000000 0.000001 0.000000 0.000000 -0.000001 0.000000 0.000000 -0.000001 0.000000 0.000000 -0.000001 0.000000 0.000000 -0.000001 0.000000 0.000000 -0.000001 0.000000 0.000000 0.000000 0.000000 0.000000 0.000000 0.000000 0.000000 0.000000 -0.000000 0.000000 0.000000 -0.000000 0.000000 0.000000 
-10.798635 68.390381 -1.216004 -0.963286 6.334534 0.525526 -0.000000 0.000000 0.000000 -59.798661 -8.431697 4.789547 57.657691 -20.659154 -8.530079 -0.228557 -3.887178 -2.103669 0.000000 0.000001 -0.000000 -0.000000 0.000000 -0.000000 -0.000002 -0.000000 -0.000000 -6.694841 -6.129215 -1.251461 78.546308 -12.302571 -7.309801 -43.044119 -1.923684 16.999082 -0.000002 -0.000000 -0.000000 0.000001 -0.000000 0.000001 0.000001 -0.000000 0.000000 8.259345 0.028083 -1.819720 2.568483 -0.078458 -4.312728 2.590948 -0.078385 -4.312242 0.090886 -9.587593 9.553649 -0.716504 -4.945424 -10.676960 -0.000001 0.000000 0.000001 -0.000001 0.000000 0.000001 -0.000001 0.000000 0.000001 -0.000001 0.000000 0.000001 -0.000001 0.000000 0.000001 -0.000001 0.000000 0.000001 -0.000001 0.000000 0.000001 -0.000001 0.000000 0.000001 -0.000001 0.000000 0.000001 -0.000001 0.000000 0.000001 -0.000001 0.000000 0.000001 -0.000001 0.000000 0.000001 -0.000001 0.000000 0.000001 -0.000001 0.000000 0.000001 -0.000001 0.000000 0.000001 -0.000001 0.000000 0.000001 -0.000001 0.000000 0.000001 -0.000001 0.000000 0.000001 -0.000001 0.000000 0.000001 -8.485028 -28.820475 -9.252596 -25.663300 -15.710622 -18.176238 -134.370380 -56.428950 -136.822664 -8.621286 -3.463221 20.162322 14.821236 17.379375 11.215549 10.269869 28.734852 -10.694108 0.000001 0.000003 0.000000 16.649749 9.371639 -44.593923 -0.351071 0.993988 -120.047350 0.000001 -0.000003 0.000002 6.076242 7.776698 -58.086845 1.006477 0.042500 -113.465671 -0.000001 -0.000003 -0.000000 0.133092 12.601326 -64.387196 0.867744 -0.128560 -110.199768 0.000000 0.000003 0.000001 -15.415781 16.999629 -68.075000 0.714997 -0.239997 -133.253248 -0.000004 0.000001 -0.000002 -0.000001 -0.000002 -0.000000 -8.020589 29.104092 7.655828 -24.846582 11.304223 29.134561 32.702000 121.145016 -30.427437 -8.088087 5.625844 -27.490524 15.061783 -14.238114 -12.274974 10.652962 -26.601761 13.514497 -0.000002 0.000001 -0.000001 19.237409 0.147153 44.669970 -0.156319 -1.095442 130.776006 -0.000002 -0.000003 0.000001 5.981515 -1.717669 59.670554 0.967274 0.104972 121.723684 -0.000002 -0.000003 -0.000002 0.026750 -7.126155 61.895345 0.865375 0.227829 115.797607 0.000001 -0.000004 -0.000000 -16.993695 -12.001700 65.678587 0.697914 0.337715 141.340055 0.000000 -0.000001 0.000001 0.000000 0.000001 0.000002 0.000000 0.000000 0.000001 0.000000 0.000000 0.000001 0.000000 0.000000 0.000001 0.000000 0.000000 0.000001 0.000000 0.000000 0.000001 0.000000 -0.000000 0.000001 0.000000 0.000001 0.000001 0.000000 0.000001 0.000001 -0.000000 -0.000000 0.000000 -0.000000 0.000000 0.000000 
-10.941363 69.911621 -0.742053 1.146036 7.775214 0.645487 -0.000000 -0.000000 -0.000000 -58.857297 -8.532953 3.100006 52.965156 -20.235769 -7.398172 1.188065 -3.519229 -3.239577 0.000000 -0.000000 0.000000 0.000000 -0.000000 -0.000000 -0.000001 0.000001 0.000000 -6.722325 -6.555821 -0.451730 73.707973 -12.976599 -7.602960 -41.507425 -1.480721 16.406869 0.000000 -0.000000 0.000000 -0.000001 0.000001 0.000001 0.000000 -0.000000 0.000000 7.511948 -0.109151 -1.942326 1.064138 -0.427328 -4.603812 1.086616 -0.427257 -4.603352 -5.694805 -10.493381 7.608344 -0.030810 -6.025161 -10.033725 0.000001 0.000001 0.000001 0.000001 0.000001 0.000001 0.000001 0.000001 0.000001 0.000001 0.000001 0.000001 0.000001 0.000001 0.000001 0.000001 0.000001 0.000001 0.000001 0.000001 0.000001 0.000001 0.000001 0.000001 0.000001 0.000001 0.000001 0.000001 0.000001 0.000001 0.000001 0.000001 0.000001 0.000001 0.000001 0.000001 0.000001 0.000001 0.000001 0.000001 0.000001 0.000001 0.000001 0.000001 0.000001 0.000001 0.000001 0.000001 0.000001 0.000001 0.000001 0.000001 0.000001 0.000001 0.000001 0.000001 0.000001 -8.676804 -25.765731 -10.075469 -18.326613 -15.006489 -10.670908 -143.139988 -54.309566 -144.303838 -8.338686 -4.453240 22.583612 13.542295 15.852872 10.916836 8.824518 26.648362 -9.992349 0.000003 0.000002 -0.000003 13.337088 4.780005 -39.370761 -0.419310 0.892969 -109.137762 0.000002 0.000001 -0.000005 4.808485 3.926222 -52.134311 1.003505 0.176439 -103.588835 -0.000001 0.000000 0.000002 -0.215161 9.437561 -59.277907 0.838063 -0.028780 -100.964580 0.000000 0.000002 0.000001 -13.745447 13.901459 -63.510514 0.719946 -0.132193 -121.198756 0.000000 0.000001 0.000001 -0.000001 0.000000 -0.000001 -7.681964 25.388558 6.444248 -12.655754 14.347789 25.486340 5.490598 121.793638 -9.171607 -8.726485 2.964758 -28.818668 11.624269 -10.440119 -11.249742 11.086790 -29.256210 11.708969 0.000004 0.000003 0.000000 18.267566 0.888060 42.688518 -0.289836 -1.006642 121.263370 -0.000001 0.000002 -0.000000 5.769976 -0.545412 57.834866 0.983940 -0.035229 114.143266 -0.000000 -0.000001 -0.000002 -0.199849 -6.376000 61.868851 0.850974 0.117620 109.628750 0.000003 0.000000 -0.000000 -15.494076 -12.026863 66.080858 0.715295 0.240957 133.925967 0.000001 0.000001 -0.000002 -0.000001 -0.000000 -0.000002 0.000001 -0.000001 -0.000000 0.000001 -0.000001 -0.000000 0.000001 -0.000001 -0.000000 0.000001 -0.000001 -0.000000 0.000001 -0.000001 -0.000000 0.000001 -0.000001 0.000001 -0.000000 0.000000 0.000000 -0.000000 0.000000 0.000000 -0.000000 0.000000 0.000000 -0.000000 -0.000000 -0.000000 
-11.119766 72.492783 0.117712 4.071347 9.437745 0.867864 -0.000000 0.000001 -0.000000 -56.075320 -8.847060 0.780815 44.648609 -19.738970 -5.359493 3.541627 -2.501634 -5.162398 -0.000000 -0.000000 0.000000 -0.000000 0.000001 0.000000 -0.000002 0.000000 -0.000000 -6.045271 -7.068719 0.472920 65.137533 -13.866326 -8.331060 -38.184599 -0.730327 15.793103 0.000002 0.000000 -0.000000 -0.000000 -0.000000 0.000000 0.000000 0.000000 -0.000000 6.669749 -0.250432 -2.058386 -0.631354 -0.805340 -4.887748 -0.608884 -0.805299 -4.887265 -14.077577 -10.176103 5.940330 3.281337 -6.836341 -9.520003 -0.000000 -0.000001 -0.000000 -0.000000 -0.000001 -0.000000 -0.000000 -0.000001 -0.000000 -0.000000 -0.000001 -0.000000 -0.000000 -0.000001 -0.000000 -0.000000 -0.000001 -0.000000 -0.000000 -0.000001 -0.000000 -0.000000 -0.000001 -0.000000 -0.000000 -0.000001 -0.000000 -0.000000 -0.000001 -0.000000 -0.000000 -0.000001 -0.000000 -0.000000 -0.000001 -0.000000 -0.000000 -0.000001 -0.000000 -0.000000 -0.000001 -0.000000 -0.000000 -0.000001 -0.000000 -0.000000 -0.000001 -0.000000 -0.000000 -0.000001 -0.000000 -0.000000 -0.000001 -0.000000 -0.000000 -0.000001 -0.000000 -8.036796 -21.485212 -9.500184 -14.726089 -11.896514 -5.740289 -146.957121 -62.475228 -145.446283 -7.887425 -6.581182 25.772375 11.853003 13.783151 10.547947 7.134285 24.125483 -9.310032 -0.000003 -0.000000 0.000001 10.702068 -1.002507 -33.147386 -0.468622 0.763086 -96.351976 0.000002 -0.000000 -0.000003 4.375461 -0.409747 -44.950694 0.966607 0.328665 -91.921048 -0.000001 0.000000 -0.000001 0.232669 6.121644 -52.931965 0.782617 0.078146 -89.957362 -0.000003 0.000004 -0.000002 -11.103517 10.841488 -57.415882 0.696294 -0.010333 -106.970372 0.000001 0.000000 -0.000000 -0.000001 0.000002 -0.000001 -7.296018 21.402411 5.049865 -4.773019 12.248331 21.979740 -14.800924 116.232498 8.083251 -8.901742 3.776047 -31.299595 4.230385 -1.918571 -6.476947 12.275581 -36.017920 7.415565 0.000000 -0.000001 0.000000 16.370751 2.829284 38.403787 -0.505704 -0.751357 100.224762 0.000004 -0.000000 0.000001 5.422001 2.068129 53.814381 0.933720 -0.307688 97.586983 -0.000001 -0.000001 -0.000002 -0.820399 -4.841764 62.096979 0.758528 -0.091748 96.422607 -0.000000 0.000003 0.000002 -12.071933 -12.450894 67.577386 0.690953 0.049104 118.162300 -0.000001 0.000002 -0.000000 -0.000001 0.000001 -0.000000 0.000000 -0.000000 0.000001 0.000000 -0.000000 0.000001 0.000000 -0.000000 0.000001 0.000000 -0.000000 0.000001 0.000000 -0.000000 0.000001 0.000000 -0.000000 0.000001 0.000000 -0.000000 0.000001 0.000000 -0.000000 0.000001 0.000000 -0.000000 0.000000 -0.000000 0.000001 -0.000000 
